# Blender v2.80 (sub 75) OBJ File: 'bla-44.blend'
# www.blender.org
mtllib bla-44.mtl
o Cube_Cube.001
v 0.156748 1.000000 1.000000
v 0.156748 1.000000 -15.873123
v 0.725927 -0.399732 -15.653128
v 0.725927 -0.399732 1.000000
v 0.156748 1.239028 1.628907
v 0.725927 -0.858340 1.628907
v 0.156746 1.239028 13.319463
v 0.725925 -0.858341 11.400007
v 0.158238 0.616213 14.652472
v 0.158238 0.633552 14.915418
v 0.294513 -2.350401 14.915418
v 0.158238 0.633552 24.531872
v 0.284873 -2.350401 24.531872
v 0.176956 0.205212 23.948633
v 0.177800 0.205212 20.416031
v 0.274242 -2.002666 20.416031
v 0.270700 -2.002666 23.948635
v 0.178067 0.199382 20.099678
v 0.179183 0.174926 16.798056
v 0.266860 -1.988902 16.798056
v 0.264877 -2.013359 20.099678
v 0.000000 1.000000 1.000000
v 0.000000 1.000000 -16.146231
v 0.000000 -1.000000 1.000000
v -0.156748 1.000000 1.000000
v 0.000000 -1.000000 -16.146231
v -0.156748 1.000000 -15.873123
v -0.725927 -0.399732 -15.653128
v -0.725927 -0.399732 1.000000
v 0.000000 -0.420585 1.000000
v 0.000000 -0.593819 -16.886248
v 0.000000 1.239028 1.628907
v 0.000000 -1.468666 1.628907
v -0.156748 1.239028 1.628907
v -0.725927 -0.858340 1.628907
v 0.000000 -0.419736 1.628907
v 0.000000 1.239028 13.319463
v 0.000000 -1.468667 11.400007
v -0.156746 1.239028 13.319463
v -0.725925 -0.858341 11.400007
v 0.000000 -0.419737 13.319463
v 0.000000 0.616213 14.652472
v -0.158238 0.616213 14.652472
v 0.000000 -0.917477 14.652472
v 0.000000 0.633552 14.915418
v 0.000000 -2.747584 14.915418
v -0.158238 0.633552 14.915418
v -0.294513 -2.350401 14.915418
v 0.000000 -1.437826 14.915418
v 0.000000 0.633552 24.531872
v 0.000000 -2.725335 24.154661
v -0.158238 0.633552 24.531872
v -0.284873 -2.350401 24.531872
v 0.000000 -2.510632 24.531872
v -0.176956 0.205212 23.948633
v -0.177800 0.205212 20.416031
v -0.274242 -2.002666 20.416031
v -0.270700 -2.002666 23.948635
v -0.178067 0.199382 20.099678
v -0.179183 0.174926 16.798056
v -0.266860 -1.988902 16.798056
v -0.264877 -2.013359 20.099678
v 0.000000 -2.012560 20.067238
v 0.000000 -1.646487 16.785824
v 0.000000 0.187154 16.785826
v 0.000000 0.162698 20.087452
v 0.000000 -1.977246 16.785826
v 0.000000 0.187154 20.393156
v 0.000000 0.223838 23.927122
v 0.000000 -1.977246 23.927122
v 0.000000 -1.928333 20.429842
vt 0.500000 0.500000
vt 0.625000 0.500000
vt 0.625000 0.750000
vt 0.500000 0.750000
vt 0.875000 0.500000
vt 0.875000 0.750000
vt 0.375000 0.500000
vt 0.375000 0.500000
vt 0.375000 0.750000
vt 0.375000 0.750000
vt 0.000000 0.000000
vt 0.000000 0.000000
vt 0.000000 0.000000
vt 0.000000 0.000000
vt 0.000000 0.000000
vt 0.000000 0.000000
vt 0.000000 0.000000
vt 0.000000 0.000000
vt 0.000000 0.000000
vt 0.375000 0.750000
vt 0.500000 0.750000
vt 0.625000 0.750000
vt 0.875000 0.750000
vt 0.000000 0.000000
vt 0.000000 0.000000
vt 0.000000 0.000000
vt 0.875000 0.750000
vt 0.625000 0.750000
vt 0.500000 0.750000
vt 0.375000 0.750000
vt 0.375000 0.750000
vt 0.375000 0.750000
vt 0.375000 0.750000
vt 0.375000 0.750000
vt 0.500000 0.750000
vt 0.875000 0.750000
vt 0.625000 0.750000
vt 0.000000 0.000000
vt 0.000000 0.000000
vt 0.514566 0.750000
vt 0.397713 0.750000
vt 0.451622 0.750000
vt 0.514567 0.750000
vt 0.875000 0.750000
vt 0.625000 0.750000
vt 0.875000 0.750000
vt 0.375000 0.750000
vt 0.500000 0.750000
vt 0.625000 0.750000
vt 0.607056 0.750000
vt 0.375000 0.750000
vt 0.000000 0.000000
vt 0.000000 0.000000
vt 0.000000 0.000000
vt 0.524851 0.750000
vt 0.523827 0.750000
vt 0.606811 0.750000
vt 0.607055 0.750000
vt 0.000000 0.000000
vt 0.000000 0.000000
vt 0.000000 0.000000
vt 0.000000 0.000000
vt 0.605787 0.750000
vt 0.000000 0.000000
vt 0.000000 0.000000
vt 0.000000 0.000000
vt 0.000000 0.000000
vt 0.375000 0.750000
vt 0.375000 0.750000
vt 0.000000 0.000000
vt 0.000000 0.000000
vt 0.000000 0.000000
vt 0.000000 0.000000
vt 0.000000 0.000000
vt 0.000000 0.000000
vt 0.000000 0.000000
vt 0.000000 0.000000
vt 0.000000 0.000000
vt 0.500000 0.500000
vt 0.500000 0.750000
vt 0.625000 0.750000
vt 0.625000 0.500000
vt 0.375000 0.750000
vt 0.000000 0.000000
vt 0.000000 0.000000
vt 0.000000 0.000000
vt 0.000000 0.000000
vt 0.500000 0.750000
vt 0.625000 0.750000
vt 0.000000 0.000000
vt 0.625000 0.750000
vt 0.500000 0.750000
vt 0.500000 0.750000
vt 0.625000 0.750000
vt 0.514566 0.750000
vt 0.514567 0.750000
vt 0.625000 0.750000
vt 0.625000 0.750000
vt 0.500000 0.750000
vt 0.375000 0.750000
vt 0.807287 0.750000
vt 0.792607 0.750000
vt 0.777638 0.750000
vt 0.607056 0.750000
vt 0.000000 0.000000
vt 0.607055 0.750000
vt 0.606811 0.750000
vt 0.523827 0.750000
vt 0.524851 0.750000
vt 0.000000 0.000000
vt 0.000000 0.000000
vt 0.605787 0.750000
vt 0.785620 0.750000
vt 0.000000 0.000000
vt 0.000000 0.000000
vt 0.000000 0.000000
vt 0.000000 0.000000
vt 0.000000 0.000000
vt 0.000000 0.000000
vn 0.9263 0.3767 0.0000
vn 0.0000 1.0000 0.0000
vn 0.8222 0.2455 -0.5135
vn -0.8970 -0.4421 0.0000
vn -0.6373 0.7707 0.0000
vn -0.5171 -0.8559 -0.0000
vn -0.2610 -0.9071 -0.3301
vn -0.5573 0.6683 0.4927
vn 0.9495 0.3091 0.0540
vn 0.0000 0.9348 -0.3553
vn -0.6836 0.6924 0.2309
vn 0.9651 0.2619 0.0000
vn -0.6435 0.7654 0.0000
vn -0.8116 -0.5542 -0.1848
vn 0.0000 0.9060 0.4233
vn -0.9220 -0.3148 -0.2256
vn 0.1800 0.9836 0.0069
vn 0.0000 0.9978 -0.0658
vn 0.0000 0.0000 1.0000
vn 0.9991 0.0424 0.0010
vn -0.7996 0.6005 -0.0011
vn 0.9882 0.0927 0.1222
vn 0.4392 -0.7808 0.4444
vn 0.9971 0.0754 -0.0088
vn 0.0959 0.0020 -0.9954
vn 0.9990 0.0442 0.0017
vn -0.0023 -1.0000 0.0052
vn -0.0190 0.0081 0.9998
vn 0.0227 0.9997 0.0091
vn 0.0998 0.0066 -0.9950
vn 0.0683 -0.9977 0.0000
vn -0.0557 -0.0012 0.9984
vn -0.0458 0.0000 0.9990
vn -0.9263 0.3767 0.0000
vn -0.8222 0.2455 -0.5135
vn 1.0000 0.0000 0.0000
vn 0.8970 -0.4421 0.0000
vn 0.6373 0.7707 0.0000
vn 0.5171 -0.8559 -0.0000
vn 0.2610 -0.9071 -0.3301
vn 0.5573 0.6683 0.4927
vn -0.9495 0.3091 0.0540
vn 0.6836 0.6924 0.2309
vn -0.9651 0.2619 0.0000
vn 0.6435 0.7654 0.0000
vn 0.8116 -0.5542 -0.1848
vn 0.9220 -0.3148 -0.2256
vn -0.1800 0.9836 0.0069
vn -0.9991 0.0424 0.0010
vn 0.7996 0.6005 -0.0011
vn -0.9882 0.0927 0.1222
vn -0.4392 -0.7808 0.4444
vn -0.9971 0.0754 -0.0088
vn -0.0959 0.0020 -0.9954
vn -0.9990 0.0442 0.0017
vn 0.0023 -1.0000 0.0052
vn 0.0190 0.0081 0.9998
vn -0.0227 0.9997 0.0091
vn -0.0998 0.0066 -0.9950
vn -0.0683 -0.9977 0.0000
vn 0.0557 -0.0012 0.9984
vn 0.0458 0.0000 0.9990
usemtl None
s off
f 3/1/1 2/2/1 1/3/1 4/4/1
f 2/2/2 23/5/2 22/6/2 1/3/2
f 23/5/3 2/2/3 3/1/3 31/7/3
f 26/8/4 3/1/4 4/4/4 24/9/4 30/10/4 22/6/4 23/5/4 31/7/4
f 4/11/5 3/12/5 26/13/5 24/14/5
f 36/15/6 6/16/6 8/17/6 41/18/6
f 30/19/7 4/11/7 6/16/7 36/15/7
f 4/4/8 24/9/8 33/20/8 6/21/8
f 4/4/9 1/3/9 5/22/9 6/21/9
f 1/3/10 22/6/10 32/23/10 5/22/10
f 11/24/11 8/17/11 38/25/11 46/26/11
f 5/22/2 32/23/2 37/27/2 7/28/2
f 6/21/12 5/22/12 7/28/12 8/29/12
f 6/21/13 33/20/13 38/30/13 8/29/13
f 46/31/14 49/32/14 44/33/14 41/34/14 38/30/14 8/29/14 11/35/14
f 7/28/15 37/27/15 42/36/15 9/37/15
f 8/17/16 11/24/16 49/38/16 44/39/16 41/18/16
f 16/40/17 71/41/17 70/42/17 17/43/17
f 9/37/18 42/36/18 45/44/18 10/45/18
f 50/46/19 54/47/19 13/48/19 12/49/19
f 10/45/2 45/44/2 50/46/2 12/49/2
f 11/35/20 16/40/20 17/43/20 14/50/20 12/49/20 13/48/20
f 11/35/21 46/31/21 51/51/21 13/48/21
f 9/37/22 10/45/22 11/35/22 8/29/22 7/28/22
f 13/52/23 54/53/23 51/54/23
f 11/35/24 20/55/24 21/56/24 18/57/24 15/58/24 16/40/24
f 14/59/25 17/60/25 70/61/25 69/62/25
f 12/49/26 14/50/26 15/58/26 18/57/26 19/63/26 20/55/26 11/35/26 10/45/26
f 15/64/27 14/59/27 69/62/27 68/65/27
f 16/66/28 15/64/28 68/65/28 71/67/28
f 21/56/29 20/55/29 67/68/29 63/69/29
f 18/70/30 21/71/30 63/72/30 66/73/30
f 19/74/31 18/70/31 66/73/31 65/75/31
f 20/76/32 19/74/32 65/75/32 64/77/32
f 20/76/33 64/77/33 67/78/33
f 28/79/34 29/80/34 25/81/34 27/82/34
f 27/82/2 25/81/2 22/6/2 23/5/2
f 23/5/35 31/7/35 28/79/35 27/82/35
f 22/6/36 32/23/36 36/83/36 30/10/36
f 26/8/37 31/7/37 23/5/37 22/6/37 30/10/37 24/9/37 29/80/37 28/79/37
f 29/84/38 24/14/38 26/13/38 28/85/38
f 36/15/39 41/18/39 40/86/39 35/87/39
f 30/10/36 36/83/36 33/20/36 24/9/36
f 30/19/40 36/15/40 35/87/40 29/84/40
f 29/80/41 35/88/41 33/20/41 24/9/41
f 29/80/42 35/88/42 34/89/42 25/81/42
f 25/81/10 34/89/10 32/23/10 22/6/10
f 48/90/43 46/26/43 38/25/43 40/86/43
f 36/83/36 41/34/36 38/30/36 33/20/36
f 34/89/2 39/91/2 37/27/2 32/23/2
f 32/23/36 37/27/36 41/34/36 36/83/36
f 35/88/44 40/92/44 39/91/44 34/89/44
f 35/88/45 40/92/45 38/30/45 33/20/45
f 46/31/46 48/93/46 40/92/46 38/30/46 41/34/46 44/33/46 49/32/46
f 39/91/15 43/94/15 42/36/15 37/27/15
f 37/27/36 42/36/36 44/33/36 41/34/36
f 40/86/47 41/18/47 44/39/47 49/38/47 48/90/47
f 57/95/48 58/96/48 70/42/48 71/41/48
f 43/94/18 47/97/18 45/44/18 42/36/18
f 42/36/36 45/44/36 49/32/36 44/33/36
f 50/46/19 52/98/19 53/99/19 54/47/19
f 49/32/36 64/100/36 67/68/36 63/69/36 54/47/36 51/51/36 46/31/36
f 47/97/2 52/98/2 50/46/2 45/44/2
f 45/44/36 50/46/36 69/101/36 68/102/36 65/103/36 64/100/36 49/32/36
f 48/93/49 53/99/49 52/98/49 55/104/49 58/96/49 57/95/49
f 48/93/50 53/99/50 51/51/50 46/31/50
f 43/94/51 39/91/51 40/92/51 48/93/51 47/97/51
f 53/105/52 51/54/52 54/53/52
f 48/93/53 57/95/53 56/106/53 59/107/53 62/108/53 61/109/53
f 55/110/54 69/62/54 70/61/54 58/111/54
f 52/98/55 47/97/55 48/93/55 61/109/55 60/112/55 59/107/55 56/106/55 55/104/55
f 50/46/36 54/47/36 63/69/36 66/113/36 65/103/36 68/102/36 71/41/36 70/42/36 69/101/36
f 56/114/56 68/65/56 69/62/56 55/110/56
f 57/115/57 71/67/57 68/65/57 56/114/57
f 62/108/58 63/69/58 67/68/58 61/109/58
f 59/116/59 66/73/59 63/72/59 62/117/59
f 60/118/60 65/75/60 66/73/60 59/116/60
f 61/119/61 64/77/61 65/75/61 60/118/61
f 61/119/62 67/78/62 64/77/62
o Cube.001_Cube.002
v -0.367514 -0.929883 6.319506
v -0.367514 -11.825129 6.319506
v -0.367514 -0.929883 2.660591
v -0.367514 -11.825129 2.660591
v 0.345118 -0.929883 6.319506
v 0.345118 -11.825129 6.319506
v 0.345118 -0.929883 2.660591
v 0.345118 -11.825129 2.660591
vt 0.375000 0.000000
vt 0.625000 0.000000
vt 0.625000 0.250000
vt 0.375000 0.250000
vt 0.625000 0.500000
vt 0.375000 0.500000
vt 0.625000 0.750000
vt 0.375000 0.750000
vt 0.625000 1.000000
vt 0.375000 1.000000
vt 0.125000 0.500000
vt 0.125000 0.750000
vt 0.875000 0.500000
vt 0.875000 0.750000
vn 1.0000 0.0000 0.0000
vn 0.0000 0.0000 1.0000
vn -1.0000 0.0000 0.0000
vn 0.0000 0.0000 -1.0000
vn 0.0000 -1.0000 0.0000
vn 0.0000 1.0000 0.0000
usemtl None
s off
f 72/120/63 73/121/63 75/122/63 74/123/63
f 74/123/64 75/122/64 79/124/64 78/125/64
f 78/125/65 79/124/65 77/126/65 76/127/65
f 76/127/66 77/126/66 73/128/66 72/129/66
f 74/130/67 78/125/67 76/127/67 72/131/67
f 79/124/68 75/132/68 73/133/68 77/126/68
o Cube.002_Cube
v -0.482772 -5.058612 12.068521
v -0.482772 -0.684291 11.745888
v -0.482772 -5.058612 10.552185
v -0.482772 -0.684291 10.229551
v 0.482772 -5.058612 12.068521
v 0.482772 -0.684291 11.745888
v 0.482772 -5.058612 10.552185
v 0.482772 -0.684291 10.229551
v -0.482772 -4.236592 12.457907
v -0.482772 -4.236592 10.941570
v 0.482772 -4.236592 10.941570
v 0.482772 -4.236592 12.457907
v -0.000000 -5.058612 10.375843
v -0.000000 -0.684291 10.007136
v -0.000000 -5.058612 12.108713
v -0.000000 -0.684291 11.740007
v -0.000000 -4.236592 12.553703
v -0.000000 -4.236592 10.765205
vt 0.421980 0.000000
vt 0.625000 0.000000
vt 0.625000 0.250000
vt 0.421980 0.250000
vt 0.421980 0.375000
vt 0.625000 0.375000
vt 0.625000 0.500000
vt 0.421980 0.500000
vt 0.625000 0.750000
vt 0.421980 0.750000
vt 0.421980 0.875000
vt 0.625000 0.875000
vt 0.625000 1.000000
vt 0.421980 1.000000
vt 0.250000 0.500000
vt 0.375000 0.500000
vt 0.375000 0.750000
vt 0.250000 0.750000
vt 0.750000 0.500000
vt 0.875000 0.500000
vt 0.875000 0.750000
vt 0.750000 0.750000
vt 0.375000 0.875000
vt 0.375000 1.000000
vt 0.375000 0.375000
vt 0.375000 0.000000
vt 0.375000 0.250000
vt 0.125000 0.500000
vt 0.125000 0.750000
vn -1.0000 0.0000 0.0000
vn 0.3749 -0.1878 -0.9078
vn 1.0000 0.0000 0.0000
vn -0.0907 0.2091 0.9737
vn 0.0000 -1.0000 0.0000
vn 0.0000 1.0000 0.0000
vn -0.1246 -0.4490 0.8848
vn 0.3135 0.4065 -0.8582
vn -0.3135 0.4065 -0.8582
vn 0.1246 -0.4490 0.8848
vn 0.0907 0.2091 0.9737
vn -0.3749 -0.1878 -0.9078
usemtl None
s off
f 88/134/69 81/135/69 83/136/69 89/137/69
f 97/138/70 93/139/70 87/140/70 90/141/70
f 90/141/71 87/140/71 85/142/71 91/143/71
f 96/144/72 95/145/72 81/146/72 88/147/72
f 92/148/73 86/149/73 84/150/73 94/151/73
f 93/152/74 83/153/74 81/154/74 95/155/74
f 94/156/75 96/144/75 88/147/75 80/157/75
f 86/149/71 90/141/71 91/143/71 84/150/71
f 92/158/76 97/138/76 90/141/76 86/149/76
f 80/159/69 88/134/69 89/137/69 82/160/69
f 82/160/77 89/137/77 97/138/77 92/158/77
f 84/150/78 91/143/78 96/144/78 94/156/78
f 87/140/74 93/152/74 95/155/74 85/142/74
f 82/161/73 92/148/73 94/151/73 80/162/73
f 91/143/79 85/142/79 95/145/79 96/144/79
f 89/137/80 83/136/80 93/139/80 97/138/80
o Cube.003
v 0.083595 -2.169322 10.535604
v 0.083595 -1.986217 10.535604
v 0.083595 -2.169322 8.980732
v 0.083595 -1.986217 9.083446
v -0.083595 -2.169322 10.535604
v -0.083595 -1.986217 10.535604
v -0.083595 -2.169322 8.980732
v -0.083595 -1.986217 9.083446
v 0.083595 -1.442301 8.477013
v 0.083595 -1.259196 8.527428
v -0.083595 -1.442301 8.477013
v -0.083595 -1.259196 8.527428
vt 0.375000 0.000000
vt 0.625000 0.000000
vt 0.625000 0.250000
vt 0.375000 0.250000
vt 0.375000 0.500000
vt 0.125000 0.500000
vt 0.125000 0.500000
vt 0.375000 0.500000
vt 0.625000 0.500000
vt 0.625000 0.750000
vt 0.375000 0.750000
vt 0.625000 1.000000
vt 0.375000 1.000000
vt 0.125000 0.750000
vt 0.875000 0.500000
vt 0.875000 0.750000
vt 0.375000 0.250000
vt 0.625000 0.250000
vt 0.625000 0.500000
vt 0.875000 0.500000
vn -1.0000 -0.0000 0.0000
vn 0.0000 0.5695 0.8220
vn 1.0000 -0.0000 0.0000
vn 0.0000 0.0000 -1.0000
vn 0.0000 1.0000 0.0000
vn 0.0000 -1.0000 0.0000
vn 0.0000 -0.2655 0.9641
vn 0.0000 -0.6075 -0.7943
usemtl None
s off
f 98/163/81 99/164/81 101/165/81 100/166/81
f 104/167/82 100/168/82 106/169/82 108/170/82
f 104/167/83 105/171/83 103/172/83 102/173/83
f 102/173/84 103/172/84 99/174/84 98/175/84
f 100/168/85 104/167/85 102/173/85 98/176/85
f 105/171/86 101/177/86 99/178/86 103/172/86
f 106/179/87 107/180/87 109/181/87 108/170/87
f 101/177/88 105/171/88 109/181/88 107/182/88
f 100/166/81 101/165/81 107/180/81 106/179/81
f 105/171/83 104/167/83 108/170/83 109/181/83
o Cube.004
v -0.067279 -1.682446 9.406940
v -0.067279 -1.461250 9.406940
v -0.067279 -1.682446 9.272380
v -0.067279 -1.461250 9.272380
v 0.067279 -1.682446 9.406940
v 0.067279 -1.461250 9.406940
v 0.067279 -1.682446 9.272380
v 0.067279 -1.461250 9.272380
v -0.067279 -1.910639 9.310432
v -0.067279 -1.910639 9.196665
v 0.067279 -1.910639 9.310432
v 0.067279 -1.910639 9.196665
vt 0.375000 0.000000
vt 0.625000 0.000000
vt 0.625000 0.250000
vt 0.375000 0.250000
vt 0.625000 0.500000
vt 0.375000 0.500000
vt 0.625000 0.750000
vt 0.375000 0.750000
vt 0.625000 1.000000
vt 0.375000 1.000000
vt 0.375000 1.000000
vt 0.375000 0.750000
vt 0.875000 0.500000
vt 0.875000 0.750000
vt 0.125000 0.500000
vt 0.375000 0.500000
vt 0.125000 0.750000
vt 0.375000 0.250000
vt 0.375000 0.000000
vn -1.0000 0.0000 0.0000
vn 0.0000 0.0000 -1.0000
vn 1.0000 0.0000 0.0000
vn 0.0000 0.0000 1.0000
vn 0.0000 -0.3895 0.9210
vn 0.0000 1.0000 0.0000
vn 0.0000 -1.0000 0.0000
vn 0.0000 0.3149 -0.9491
usemtl None
s off
f 110/183/89 111/184/89 113/185/89 112/186/89
f 112/186/90 113/185/90 117/187/90 116/188/90
f 116/188/91 117/187/91 115/189/91 114/190/91
f 114/190/92 115/189/92 111/191/92 110/192/92
f 114/190/93 110/192/93 118/193/93 120/194/93
f 117/187/94 113/195/94 111/196/94 115/189/94
f 119/197/95 121/198/95 120/194/95 118/199/95
f 112/186/96 116/188/96 121/198/96 119/200/96
f 110/183/89 112/186/89 119/200/89 118/201/89
f 116/188/91 114/190/91 120/194/91 121/198/91
o Cylinder
v 0.000000 2.274410 6.517398
v 0.000000 2.225423 11.639098
v 0.099197 2.262899 6.517398
v 0.099197 2.216249 11.632145
v 0.194582 2.228809 6.517398
v 0.194582 2.189080 11.611554
v 0.282489 2.173450 6.517398
v 0.282489 2.144960 11.578115
v 0.359541 2.098948 6.517398
v 0.359541 2.085586 11.533115
v 0.422775 2.008168 6.517398
v 0.422775 2.013237 11.478281
v 0.469763 1.904598 6.517398
v 0.469763 1.930696 11.415722
v 0.498697 1.792217 6.517398
v 0.498697 1.841132 11.347840
v 0.508467 1.675346 6.517398
v 0.508467 1.747990 11.277248
v 0.498697 1.621142 6.517398
v 0.498697 1.621670 11.179645
v 0.469763 1.549737 6.517398
v 0.469763 1.465457 11.372641
v 0.422775 1.483930 6.517398
v 0.422775 1.413011 11.440838
v 0.359541 1.426251 6.517398
v 0.359541 1.367043 11.500612
v 0.282489 1.378914 6.517398
v 0.282489 1.329317 11.549669
v 0.194582 1.343740 6.517398
v 0.194582 1.301285 11.586122
v 0.099197 1.322079 6.517398
v 0.099197 1.284023 11.608568
v -0.000000 1.314766 6.517398
v -0.000000 1.278194 11.616147
v -0.099197 1.322079 6.517398
v -0.099197 1.284023 11.608568
v -0.194582 1.343740 6.517398
v -0.194582 1.301285 11.586122
v -0.282490 1.378914 6.517398
v -0.282490 1.329317 11.549669
v -0.359541 1.426251 6.517398
v -0.359541 1.367043 11.500612
v -0.422775 1.483931 6.517398
v -0.422775 1.413012 11.440837
v -0.469763 1.549737 6.517398
v -0.469763 1.465457 11.372641
v -0.498697 1.621142 6.517398
v -0.498697 1.621670 11.179645
v -0.508467 1.675346 6.517398
v -0.508467 1.747990 11.277248
v -0.498697 1.792217 6.517398
v -0.498697 1.841132 11.347840
v -0.469762 1.904599 6.517398
v -0.469762 1.930696 11.415723
v -0.422775 2.008169 6.517398
v -0.422775 2.013238 11.478282
v -0.359540 2.098949 6.517398
v -0.359540 2.085587 11.533115
v -0.282489 2.173450 6.517398
v -0.282489 2.144961 11.578116
v -0.194581 2.228809 6.517398
v -0.194581 2.189080 11.611554
v -0.099196 2.262899 6.517398
v -0.099196 2.216249 11.632145
vt 1.000000 0.500000
vt 1.000000 1.000000
vt 0.968750 1.000000
vt 0.968750 0.500000
vt 0.937500 1.000000
vt 0.937500 0.500000
vt 0.906250 1.000000
vt 0.906250 0.500000
vt 0.875000 1.000000
vt 0.875000 0.500000
vt 0.843750 1.000000
vt 0.843750 0.500000
vt 0.812500 1.000000
vt 0.812500 0.500000
vt 0.781250 1.000000
vt 0.781250 0.500000
vt 0.750000 1.000000
vt 0.750000 0.500000
vt 0.718750 1.000000
vt 0.718750 0.500000
vt 0.687500 1.000000
vt 0.687500 0.500000
vt 0.656250 1.000000
vt 0.656250 0.500000
vt 0.625000 1.000000
vt 0.625000 0.500000
vt 0.593750 1.000000
vt 0.593750 0.500000
vt 0.562500 1.000000
vt 0.562500 0.500000
vt 0.531250 1.000000
vt 0.531250 0.500000
vt 0.500000 1.000000
vt 0.500000 0.500000
vt 0.468750 1.000000
vt 0.468750 0.500000
vt 0.437500 1.000000
vt 0.437500 0.500000
vt 0.406250 1.000000
vt 0.406250 0.500000
vt 0.375000 1.000000
vt 0.375000 0.500000
vt 0.343750 1.000000
vt 0.343750 0.500000
vt 0.312500 1.000000
vt 0.312500 0.500000
vt 0.281250 1.000000
vt 0.281250 0.500000
vt 0.250000 1.000000
vt 0.250000 0.500000
vt 0.218750 1.000000
vt 0.218750 0.500000
vt 0.187500 1.000000
vt 0.187500 0.500000
vt 0.156250 1.000000
vt 0.156250 0.500000
vt 0.125000 1.000000
vt 0.125000 0.500000
vt 0.093750 1.000000
vt 0.093750 0.500000
vt 0.062500 1.000000
vt 0.062500 0.500000
vt 0.485388 0.203178
vt 0.014611 0.203179
vt 0.028269 0.158156
vt 0.050447 0.116663
vt 0.080294 0.080294
vt 0.116663 0.050447
vt 0.158156 0.028269
vt 0.203178 0.014612
vt 0.250000 0.010000
vt 0.296822 0.014612
vt 0.341844 0.028269
vt 0.383337 0.050447
vt 0.419706 0.080294
vt 0.449553 0.116663
vt 0.471731 0.158156
vt 0.031250 1.000000
vt 0.031250 0.500000
vt 0.000000 1.000000
vt 0.000000 0.500000
vt 0.750000 0.490000
vt 0.796822 0.485388
vt 0.841844 0.471731
vt 0.883337 0.449553
vt 0.919706 0.419706
vt 0.949553 0.383337
vt 0.971731 0.341844
vt 0.985388 0.296822
vt 0.990000 0.250000
vt 0.985388 0.203178
vt 0.971731 0.158156
vt 0.949553 0.116663
vt 0.919706 0.080294
vt 0.883337 0.050447
vt 0.841844 0.028269
vt 0.796822 0.014612
vt 0.750000 0.010000
vt 0.703178 0.014612
vt 0.658156 0.028269
vt 0.616663 0.050447
vt 0.580294 0.080294
vt 0.550447 0.116663
vt 0.528269 0.158156
vt 0.514611 0.203179
vt 0.510000 0.250000
vt 0.514612 0.296822
vt 0.528269 0.341844
vt 0.550447 0.383337
vt 0.580295 0.419706
vt 0.616663 0.449553
vt 0.658156 0.471731
vt 0.703179 0.485389
vt 0.296822 0.485388
vt 0.250000 0.490000
vt 0.203179 0.485389
vt 0.158156 0.471731
vt 0.116663 0.449553
vt 0.080295 0.419706
vt 0.050447 0.383337
vt 0.028269 0.341844
vt 0.014612 0.296822
vt 0.010000 0.250000
vt 0.490000 0.250000
vt 0.485388 0.296822
vt 0.471731 0.341844
vt 0.449553 0.383337
vt 0.419706 0.419706
vt 0.383337 0.449553
vt 0.341844 0.471731
vn 0.1040 0.9945 0.0093
vn 0.3065 0.9518 0.0081
vn 0.4933 0.8698 0.0058
vn 0.6563 0.7545 0.0031
vn 0.7904 0.6126 0.0005
vn 0.8925 0.4511 -0.0014
vn 0.9611 0.2761 -0.0021
vn 0.9957 0.0930 -0.0012
vn 0.9941 -0.1081 0.0008
vn 0.9687 -0.2481 -0.0022
vn 0.7801 -0.6256 -0.0099
vn 0.6310 -0.7758 -0.0102
vn 0.4809 -0.8767 -0.0095
vn 0.3367 -0.9416 -0.0086
vn 0.1990 -0.9800 -0.0078
vn 0.0658 -0.9978 -0.0073
vn -0.0658 -0.9978 -0.0073
vn -0.1990 -0.9800 -0.0078
vn -0.3367 -0.9416 -0.0086
vn -0.4809 -0.8767 -0.0095
vn -0.6310 -0.7758 -0.0102
vn -0.7801 -0.6256 -0.0099
vn -0.9687 -0.2481 -0.0022
vn -0.9941 -0.1081 0.0008
vn -0.9957 0.0930 -0.0012
vn -0.9611 0.2761 -0.0021
vn -0.8925 0.4511 -0.0014
vn -0.7904 0.6126 0.0005
vn -0.6563 0.7545 0.0031
vn -0.4933 0.8698 0.0058
vn -0.0000 0.7845 0.6202
vn -0.3065 0.9518 0.0081
vn -0.1040 0.9945 0.0093
vn 0.0000 0.0000 -1.0000
vn 0.0000 -0.6040 0.7970
vn 0.0000 -0.6114 0.7913
usemtl None
s off
f 122/202/97 123/203/97 125/204/97 124/205/97
f 124/205/98 125/204/98 127/206/98 126/207/98
f 126/207/99 127/206/99 129/208/99 128/209/99
f 128/209/100 129/208/100 131/210/100 130/211/100
f 130/211/101 131/210/101 133/212/101 132/213/101
f 132/213/102 133/212/102 135/214/102 134/215/102
f 134/215/103 135/214/103 137/216/103 136/217/103
f 136/217/104 137/216/104 139/218/104 138/219/104
f 138/219/105 139/218/105 141/220/105 140/221/105
f 140/221/106 141/220/106 143/222/106 142/223/106
f 142/223/107 143/222/107 145/224/107 144/225/107
f 144/225/108 145/224/108 147/226/108 146/227/108
f 146/227/109 147/226/109 149/228/109 148/229/109
f 148/229/110 149/228/110 151/230/110 150/231/110
f 150/231/111 151/230/111 153/232/111 152/233/111
f 152/233/112 153/232/112 155/234/112 154/235/112
f 154/235/113 155/234/113 157/236/113 156/237/113
f 156/237/114 157/236/114 159/238/114 158/239/114
f 158/239/115 159/238/115 161/240/115 160/241/115
f 160/241/116 161/240/116 163/242/116 162/243/116
f 162/243/117 163/242/117 165/244/117 164/245/117
f 164/245/118 165/244/118 167/246/118 166/247/118
f 166/247/119 167/246/119 169/248/119 168/249/119
f 168/249/120 169/248/120 171/250/120 170/251/120
f 170/251/121 171/250/121 173/252/121 172/253/121
f 172/253/122 173/252/122 175/254/122 174/255/122
f 174/255/123 175/254/123 177/256/123 176/257/123
f 176/257/124 177/256/124 179/258/124 178/259/124
f 178/259/125 179/258/125 181/260/125 180/261/125
f 180/261/126 181/260/126 183/262/126 182/263/126
f 141/264/127 169/265/127 167/266/127 165/267/127 163/268/127 161/269/127 159/270/127 157/271/127 155/272/127 153/273/127 151/274/127 149/275/127 147/276/127 145/277/127 143/278/127
f 182/263/128 183/262/128 185/279/128 184/280/128
f 184/280/129 185/279/129 123/281/129 122/282/129
f 122/283/130 124/284/130 126/285/130 128/286/130 130/287/130 132/288/130 134/289/130 136/290/130 138/291/130 140/292/130 142/293/130 144/294/130 146/295/130 148/296/130 150/297/130 152/298/130 154/299/130 156/300/130 158/301/130 160/302/130 162/303/130 164/304/130 166/305/130 168/306/130 170/307/130 172/308/130 174/309/130 176/310/130 178/311/130 180/312/130 182/313/130 184/314/130
f 125/315/131 123/316/131 185/317/131 183/318/131 181/319/131 179/320/131 177/321/131 175/322/131 173/323/131 171/324/131 139/325/131 137/326/131 135/327/131 133/328/131 131/329/131 129/330/131 127/331/131
f 139/325/132 171/324/132 169/265/132 141/264/132
