# Blender v2.91.0 OBJ File: ''
# www.blender.org
mtllib DBthing.mtl
o Cube_Cube.001
v 0.725927 -0.399729 -15.653128
v 0.156748 1.000003 -15.873123
v 0.156748 1.000000 1.000000
v 0.725927 -0.399732 1.000000
v 0.000000 1.000003 -16.146231
v 0.000000 1.000000 1.000000
v 0.000000 -0.593816 -16.886248
v 0.000000 -0.999997 -16.146231
v 0.000000 -1.000000 1.000000
v 0.000000 -0.420585 1.000000
v 0.000000 -0.419736 1.628907
v 0.725927 -0.858340 1.628907
v 0.725925 -0.858343 11.400007
v 0.000000 -0.419739 13.319463
v 0.000000 -1.468666 1.628907
v 0.156748 1.239028 1.628907
v 0.000000 1.239028 1.628907
v 0.294513 -2.350403 14.915418
v 0.000000 -1.468669 11.400007
v 0.000000 -2.747586 14.915418
v 0.000000 1.239026 13.319463
v 0.156746 1.239026 13.319463
v 0.000000 -1.437828 14.915418
v 0.000000 -0.917479 14.652472
v 0.000000 0.616211 14.652472
v 0.158238 0.616211 14.652472
v 0.274242 -2.002669 20.416031
v 0.000000 -1.928336 20.429842
v 0.000000 -1.977250 23.927122
v 0.270700 -2.002670 23.948635
v 0.000000 0.633550 14.915418
v 0.158238 0.633550 14.915418
v 0.000000 0.633548 24.531872
v 0.000000 -2.510636 24.531872
v 0.284873 -2.350405 24.531872
v 0.158238 0.633548 24.531872
v 0.176956 0.205208 23.948633
v 0.000000 -2.725339 24.154661
v 0.266860 -1.988905 16.798056
v 0.264877 -2.013362 20.099678
v 0.178067 0.199379 20.099678
v 0.177800 0.205209 20.416031
v 0.000000 0.223834 23.927122
v 0.179183 0.174923 16.798056
v 0.000000 0.187151 20.393156
v 0.000000 -1.977249 16.785826
v 0.000000 -2.012563 20.067238
v 0.000000 0.162695 20.087452
v 0.000000 0.187151 16.785826
v 0.000000 -1.646490 16.785824
v -0.725927 -0.399729 -15.653128
v -0.725927 -0.399732 1.000000
v -0.156748 1.000000 1.000000
v -0.156748 1.000003 -15.873123
v -0.725925 -0.858343 11.400007
v -0.725927 -0.858340 1.628907
v -0.156748 1.239028 1.628907
v -0.294513 -2.350403 14.915418
v -0.156746 1.239026 13.319463
v -0.158238 0.616211 14.652472
v -0.274242 -2.002669 20.416031
v -0.270700 -2.002670 23.948635
v -0.158238 0.633550 14.915418
v -0.158238 0.633548 24.531872
v -0.284873 -2.350405 24.531872
v -0.176956 0.205208 23.948633
v -0.177800 0.205209 20.416031
v -0.178067 0.199379 20.099678
v -0.264877 -2.013362 20.099678
v -0.266860 -1.988905 16.798056
v -0.179183 0.174923 16.798056
vt 0.500000 0.500000
vt 0.625000 0.500000
vt 0.625000 0.750000
vt 0.500000 0.750000
vt 0.875000 0.500000
vt 0.875000 0.750000
vt 0.375000 0.500000
vt 0.375000 0.500000
vt 0.375000 0.750000
vt 0.375000 0.750000
vt 0.000000 0.000000
vt 0.000000 0.000000
vt 0.000000 0.000000
vt 0.000000 0.000000
vt 0.000000 0.000000
vt 0.000000 0.000000
vt 0.000000 0.000000
vt 0.000000 0.000000
vt 0.000000 0.000000
vt 0.375000 0.750000
vt 0.500000 0.750000
vt 0.625000 0.750000
vt 0.875000 0.750000
vt 0.000000 0.000000
vt 0.000000 0.000000
vt 0.000000 0.000000
vt 0.875000 0.750000
vt 0.625000 0.750000
vt 0.500000 0.750000
vt 0.375000 0.750000
vt 0.375000 0.750000
vt 0.375000 0.750000
vt 0.375000 0.750000
vt 0.375000 0.750000
vt 0.500000 0.750000
vt 0.875000 0.750000
vt 0.625000 0.750000
vt 0.000000 0.000000
vt 0.000000 0.000000
vt 0.514566 0.750000
vt 0.397713 0.750000
vt 0.451622 0.750000
vt 0.514567 0.750000
vt 0.875000 0.750000
vt 0.625000 0.750000
vt 0.875000 0.750000
vt 0.375000 0.750000
vt 0.500000 0.750000
vt 0.625000 0.750000
vt 0.607056 0.750000
vt 0.375000 0.750000
vt 0.000000 0.000000
vt 0.000000 0.000000
vt 0.000000 0.000000
vt 0.524851 0.750000
vt 0.523827 0.750000
vt 0.606811 0.750000
vt 0.607055 0.750000
vt 0.000000 0.000000
vt 0.000000 0.000000
vt 0.000000 0.000000
vt 0.000000 0.000000
vt 0.605787 0.750000
vt 0.000000 0.000000
vt 0.000000 0.000000
vt 0.000000 0.000000
vt 0.000000 0.000000
vt 0.375000 0.750000
vt 0.375000 0.750000
vt 0.000000 0.000000
vt 0.000000 0.000000
vt 0.000000 0.000000
vt 0.000000 0.000000
vt 0.000000 0.000000
vt 0.000000 0.000000
vt 0.000000 0.000000
vt 0.000000 0.000000
vt 0.000000 0.000000
vt 0.500000 0.500000
vt 0.500000 0.750000
vt 0.625000 0.750000
vt 0.625000 0.500000
vt 0.375000 0.750000
vt 0.000000 0.000000
vt 0.000000 0.000000
vt 0.000000 0.000000
vt 0.000000 0.000000
vt 0.500000 0.750000
vt 0.625000 0.750000
vt 0.000000 0.000000
vt 0.625000 0.750000
vt 0.500000 0.750000
vt 0.500000 0.750000
vt 0.625000 0.750000
vt 0.514566 0.750000
vt 0.514567 0.750000
vt 0.625000 0.750000
vt 0.625000 0.750000
vt 0.500000 0.750000
vt 0.375000 0.750000
vt 0.807287 0.750000
vt 0.792607 0.750000
vt 0.777638 0.750000
vt 0.607056 0.750000
vt 0.000000 0.000000
vt 0.607055 0.750000
vt 0.606811 0.750000
vt 0.523827 0.750000
vt 0.524851 0.750000
vt 0.000000 0.000000
vt 0.000000 0.000000
vt 0.605787 0.750000
vt 0.785620 0.750000
vt 0.000000 0.000000
vt 0.000000 0.000000
vt 0.000000 0.000000
vt 0.000000 0.000000
vt 0.000000 0.000000
vt 0.000000 0.000000
vn 0.9263 0.3767 0.0000
vn -0.0000 1.0000 0.0000
vn 0.8222 0.2455 -0.5135
vn -0.8970 -0.4421 -0.0000
vn -0.6373 0.7707 0.0000
vn -0.5171 -0.8559 -0.0000
vn -0.2610 -0.9071 -0.3301
vn -0.5573 0.6683 0.4927
vn 0.9495 0.3091 0.0540
vn 0.0000 0.9348 -0.3553
vn -0.6836 0.6924 0.2309
vn 0.9651 0.2619 0.0000
vn -0.6435 0.7654 0.0000
vn -0.8116 -0.5542 -0.1848
vn 0.0000 0.9060 0.4233
vn -0.9220 -0.3148 -0.2256
vn 0.1800 0.9836 0.0069
vn 0.0000 0.9978 -0.0658
vn 0.0000 0.0000 1.0000
vn 0.9991 0.0424 0.0010
vn 0.9991 0.0434 0.0013
vn 0.9990 0.0439 0.0016
vn -0.7996 0.6005 -0.0011
vn 0.9882 0.0927 0.1222
vn 0.4392 -0.7808 0.4444
vn 0.9971 0.0754 -0.0088
vn 0.0959 0.0020 -0.9954
vn 0.9990 0.0442 0.0017
vn -0.0023 -1.0000 0.0052
vn -0.0190 0.0081 0.9998
vn 0.0227 0.9997 0.0091
vn 0.0998 0.0066 -0.9950
vn 0.0683 -0.9977 0.0000
vn -0.0550 -0.0011 0.9985
vn -0.0557 -0.0012 0.9984
vn -0.0479 -0.0002 0.9989
vn -0.0458 0.0000 0.9990
vn -0.9263 0.3767 0.0000
vn -0.8222 0.2455 -0.5135
vn 1.0000 0.0000 0.0000
vn 0.8970 -0.4421 -0.0000
vn 0.6373 0.7707 0.0000
vn 0.5171 -0.8559 -0.0000
vn 0.2610 -0.9071 -0.3301
vn 0.5573 0.6683 0.4927
vn -0.9495 0.3091 0.0540
vn 0.6836 0.6924 0.2309
vn -0.9651 0.2619 0.0000
vn 0.6435 0.7654 0.0000
vn 0.8116 -0.5542 -0.1848
vn 0.9220 -0.3148 -0.2256
vn -0.1800 0.9836 0.0069
vn -0.9991 0.0424 0.0010
vn -0.9990 0.0439 0.0016
vn -0.9991 0.0434 0.0013
vn 0.7996 0.6005 -0.0011
vn -0.9882 0.0927 0.1222
vn -0.4392 -0.7808 0.4444
vn -0.9971 0.0754 -0.0088
vn -0.0959 0.0020 -0.9954
vn -0.9990 0.0442 0.0017
vn 0.0023 -1.0000 0.0052
vn 0.0190 0.0081 0.9998
vn -0.0227 0.9997 0.0091
vn -0.0998 0.0066 -0.9950
vn -0.0683 -0.9977 0.0000
vn 0.0550 -0.0011 0.9985
vn 0.0479 -0.0002 0.9989
vn 0.0557 -0.0012 0.9984
vn 0.0458 0.0000 0.9990
usemtl None
s 1
f 1/1/1 2/2/1 3/3/1 4/4/1
f 2/2/2 5/5/2 6/6/2 3/3/2
f 5/5/3 2/2/3 1/1/3 7/7/3
f 8/8/4 1/1/4 4/4/4 9/9/4 10/10/4 6/6/4 5/5/4 7/7/4
f 4/11/5 1/12/5 8/13/5 9/14/5
f 11/15/6 12/16/6 13/17/6 14/18/6
f 10/19/7 4/11/7 12/16/7 11/15/7
f 4/4/8 9/9/8 15/20/8 12/21/8
f 4/4/9 3/3/9 16/22/9 12/21/9
f 3/3/10 6/6/10 17/23/10 16/22/10
f 18/24/11 13/17/11 19/25/11 20/26/11
f 16/22/2 17/23/2 21/27/2 22/28/2
f 12/21/12 16/22/12 22/28/12 13/29/12
f 12/21/13 15/20/13 19/30/13 13/29/13
f 20/31/14 23/32/14 24/33/14 14/34/14 19/30/14 13/29/14 18/35/14
f 22/28/15 21/27/15 25/36/15 26/37/15
f 13/17/16 18/24/16 23/38/16 24/39/16 14/18/16
f 27/40/17 28/41/17 29/42/17 30/43/17
f 26/37/18 25/36/18 31/44/18 32/45/18
f 33/46/19 34/47/19 35/48/19 36/49/19
f 32/45/2 31/44/2 33/46/2 36/49/2
f 18/35/20 27/40/20 30/43/20 37/50/21 36/49/22 35/48/20
f 18/35/23 20/31/23 38/51/23 35/48/23
f 26/37/24 32/45/24 18/35/24 13/29/24 22/28/24
f 35/52/25 34/53/25 38/54/25
f 18/35/26 39/55/26 40/56/26 41/57/26 42/58/26 27/40/26
f 37/59/27 30/60/27 29/61/27 43/62/27
f 36/49/22 37/50/21 42/58/28 41/57/28 44/63/28 39/55/28 18/35/28 32/45/28
f 42/64/29 37/59/29 43/62/29 45/65/29
f 27/66/30 42/64/30 45/65/30 28/67/30
f 40/56/31 39/55/31 46/68/31 47/69/31
f 41/70/32 40/71/32 47/72/32 48/73/32
f 44/74/33 41/70/33 48/73/33 49/75/33
f 39/76/34 44/74/35 49/75/35 50/77/36
f 39/76/34 50/77/36 46/78/37
f 51/79/38 52/80/38 53/81/38 54/82/38
f 54/82/2 53/81/2 6/6/2 5/5/2
f 5/5/39 7/7/39 51/79/39 54/82/39
f 6/6/40 17/23/40 11/83/40 10/10/40
f 8/8/41 7/7/41 5/5/41 6/6/41 10/10/41 9/9/41 52/80/41 51/79/41
f 52/84/42 9/14/42 8/13/42 51/85/42
f 11/15/43 14/18/43 55/86/43 56/87/43
f 10/10/40 11/83/40 15/20/40 9/9/40
f 10/19/44 11/15/44 56/87/44 52/84/44
f 52/80/45 56/88/45 15/20/45 9/9/45
f 52/80/46 56/88/46 57/89/46 53/81/46
f 53/81/10 57/89/10 17/23/10 6/6/10
f 58/90/47 20/26/47 19/25/47 55/86/47
f 11/83/40 14/34/40 19/30/40 15/20/40
f 57/89/2 59/91/2 21/27/2 17/23/2
f 17/23/40 21/27/40 14/34/40 11/83/40
f 56/88/48 55/92/48 59/91/48 57/89/48
f 56/88/49 55/92/49 19/30/49 15/20/49
f 20/31/50 58/93/50 55/92/50 19/30/50 14/34/50 24/33/50 23/32/50
f 59/91/15 60/94/15 25/36/15 21/27/15
f 21/27/40 25/36/40 24/33/40 14/34/40
f 55/86/51 14/18/51 24/39/51 23/38/51 58/90/51
f 61/95/52 62/96/52 29/42/52 28/41/52
f 60/94/18 63/97/18 31/44/18 25/36/18
f 25/36/40 31/44/40 23/32/40 24/33/40
f 33/46/19 64/98/19 65/99/19 34/47/19
f 23/32/40 50/100/40 46/68/40 47/69/40 34/47/40 38/51/40 20/31/40
f 63/97/2 64/98/2 33/46/2 31/44/2
f 31/44/40 33/46/40 43/101/40 45/102/40 49/103/40 50/100/40 23/32/40
f 58/93/53 65/99/53 64/98/54 66/104/55 62/96/53 61/95/53
f 58/93/56 65/99/56 38/51/56 20/31/56
f 60/94/57 59/91/57 55/92/57 58/93/57 63/97/57
f 65/105/58 38/54/58 34/53/58
f 58/93/59 61/95/59 67/106/59 68/107/59 69/108/59 70/109/59
f 66/110/60 43/62/60 29/61/60 62/111/60
f 64/98/54 63/97/61 58/93/61 70/109/61 71/112/61 68/107/61 67/106/61 66/104/55
f 33/46/40 34/47/40 47/69/40 48/113/40 49/103/40 45/102/40 28/41/40 29/42/40 43/101/40
f 67/114/62 45/65/62 43/62/62 66/110/62
f 61/115/63 28/67/63 45/65/63 67/114/63
f 69/108/64 47/69/64 46/68/64 70/109/64
f 68/116/65 48/73/65 47/72/65 69/117/65
f 71/118/66 49/75/66 48/73/66 68/116/66
f 70/119/67 50/77/68 49/75/69 71/118/69
f 70/119/67 46/78/70 50/77/68
o Cube.001_Cube.002
v -0.367514 -0.929884 6.319506
v -0.367514 -11.825130 6.319504
v -0.367514 -11.825129 2.660589
v -0.367514 -0.929883 2.660591
v 0.345118 -11.825129 2.660589
v 0.345118 -0.929883 2.660591
v 0.345118 -11.825130 6.319504
v 0.345118 -0.929884 6.319506
vt 0.375000 0.000000
vt 0.625000 0.000000
vt 0.625000 0.250000
vt 0.375000 0.250000
vt 0.625000 0.500000
vt 0.375000 0.500000
vt 0.625000 0.750000
vt 0.375000 0.750000
vt 0.625000 1.000000
vt 0.375000 1.000000
vt 0.125000 0.500000
vt 0.125000 0.750000
vt 0.875000 0.500000
vt 0.875000 0.750000
vn 1.0000 0.0000 0.0000
vn 0.0000 -0.0000 1.0000
vn -1.0000 0.0000 0.0000
vn 0.0000 0.0000 -1.0000
vn 0.0000 -1.0000 -0.0000
vn 0.0000 1.0000 0.0000
usemtl None
s 1
f 72/120/71 73/121/71 74/122/71 75/123/71
f 75/123/72 74/122/72 76/124/72 77/125/72
f 77/125/73 76/124/73 78/126/73 79/127/73
f 79/127/74 78/126/74 73/128/74 72/129/74
f 75/130/75 77/125/75 79/127/75 72/131/75
f 76/124/76 74/132/76 73/133/76 78/126/76
o Cube.002_Cube
v -0.482772 -4.236594 12.457906
v -0.482772 -0.684293 11.745888
v -0.482772 -0.684293 10.229551
v -0.482772 -4.236594 10.941569
v 0.000000 -4.236594 10.765204
v 0.000000 -0.684293 10.007136
v 0.482772 -0.684293 10.229551
v 0.482772 -4.236594 10.941569
v 0.482772 -0.684293 11.745888
v 0.482772 -4.236594 12.457906
v 0.000000 -4.236594 12.553702
v 0.000000 -0.684293 11.740007
v 0.000000 -5.058614 10.375842
v 0.482772 -5.058614 10.552184
v 0.482772 -5.058614 12.068520
v 0.000000 -5.058614 12.108712
v -0.482772 -5.058614 12.068520
v -0.482772 -5.058614 10.552184
vt 0.421980 0.000000
vt 0.625000 0.000000
vt 0.625000 0.250000
vt 0.421980 0.250000
vt 0.421980 0.375000
vt 0.625000 0.375000
vt 0.625000 0.500000
vt 0.421980 0.500000
vt 0.625000 0.750000
vt 0.421980 0.750000
vt 0.421980 0.875000
vt 0.625000 0.875000
vt 0.625000 1.000000
vt 0.421980 1.000000
vt 0.250000 0.500000
vt 0.375000 0.500000
vt 0.375000 0.750000
vt 0.250000 0.750000
vt 0.750000 0.500000
vt 0.875000 0.500000
vt 0.875000 0.750000
vt 0.750000 0.750000
vt 0.375000 0.875000
vt 0.375000 1.000000
vt 0.375000 0.375000
vt 0.375000 0.000000
vt 0.375000 0.250000
vt 0.125000 0.500000
vt 0.125000 0.750000
vn -1.0000 0.0000 0.0000
vn 0.3749 -0.1878 -0.9078
vn 1.0000 -0.0000 0.0000
vn -0.0907 0.2091 0.9737
vn 0.0000 -1.0000 0.0000
vn 0.0000 1.0000 0.0000
vn -0.1246 -0.4490 0.8848
vn 0.3135 0.4065 -0.8582
vn -0.3135 0.4065 -0.8582
vn 0.1246 -0.4490 0.8848
vn 0.0907 0.2091 0.9737
vn -0.3749 -0.1878 -0.9078
usemtl None
s 1
f 80/134/77 81/135/77 82/136/77 83/137/77
f 84/138/78 85/139/78 86/140/78 87/141/78
f 87/141/79 86/140/79 88/142/79 89/143/79
f 90/144/80 91/145/80 81/146/80 80/147/80
f 92/148/81 93/149/81 94/150/81 95/151/81
f 85/152/82 82/153/82 81/154/82 91/155/82
f 95/156/83 90/144/83 80/147/83 96/157/83
f 93/149/79 87/141/79 89/143/79 94/150/79
f 92/158/84 84/138/84 87/141/84 93/149/84
f 96/159/77 80/134/77 83/137/77 97/160/77
f 97/160/85 83/137/85 84/138/85 92/158/85
f 94/150/86 89/143/86 90/144/86 95/156/86
f 86/140/82 85/152/82 91/155/82 88/142/82
f 97/161/81 92/148/81 95/151/81 96/162/81
f 89/143/87 88/142/87 91/145/87 90/144/87
f 83/137/88 82/136/88 85/139/88 84/138/88
o Cube.003
v 0.083595 -2.169324 10.535604
v 0.083595 -1.986219 10.535604
v 0.083595 -1.986218 9.083446
v 0.083595 -2.169323 8.980732
v -0.083595 -2.169323 8.980732
v 0.083595 -1.442302 8.477013
v -0.083595 -1.442302 8.477013
v -0.083595 -1.986218 9.083446
v -0.083595 -1.986219 10.535604
v -0.083595 -2.169324 10.535604
v 0.083595 -1.259197 8.527428
v -0.083595 -1.259197 8.527428
vt 0.375000 0.000000
vt 0.625000 0.000000
vt 0.625000 0.250000
vt 0.375000 0.250000
vt 0.375000 0.500000
vt 0.125000 0.500000
vt 0.125000 0.500000
vt 0.375000 0.500000
vt 0.625000 0.500000
vt 0.625000 0.750000
vt 0.375000 0.750000
vt 0.625000 1.000000
vt 0.375000 1.000000
vt 0.125000 0.750000
vt 0.875000 0.500000
vt 0.875000 0.750000
vt 0.375000 0.250000
vt 0.625000 0.250000
vt 0.625000 0.500000
vt 0.875000 0.500000
vn -1.0000 -0.0000 0.0000
vn 0.0000 0.5695 0.8220
vn 1.0000 -0.0000 0.0000
vn 0.0000 0.0000 -1.0000
vn 0.0000 1.0000 0.0000
vn 0.0000 -1.0000 -0.0000
vn 0.0000 -0.2655 0.9641
vn 0.0000 -0.6075 -0.7943
usemtl None
s 1
f 98/163/89 99/164/89 100/165/89 101/166/89
f 102/167/90 101/168/90 103/169/90 104/170/90
f 102/167/91 105/171/91 106/172/91 107/173/91
f 107/173/92 106/172/92 99/174/92 98/175/92
f 101/168/93 102/167/93 107/173/93 98/176/93
f 105/171/94 100/177/94 99/178/94 106/172/94
f 103/179/95 108/180/95 109/181/95 104/170/95
f 100/177/96 105/171/96 109/181/96 108/182/96
f 101/166/89 100/165/89 108/180/89 103/179/89
f 105/171/91 102/167/91 104/170/91 109/181/91
o Cube.004
v -0.067279 -1.682448 9.406940
v -0.067279 -1.461251 9.406940
v -0.067279 -1.461251 9.272380
v -0.067279 -1.682448 9.272380
v 0.067279 -1.461251 9.272380
v 0.067279 -1.682448 9.272380
v 0.067279 -1.461251 9.406940
v 0.067279 -1.682448 9.406940
v -0.067279 -1.910641 9.310432
v 0.067279 -1.910641 9.310432
v -0.067279 -1.910641 9.196665
v 0.067279 -1.910641 9.196665
vt 0.375000 0.000000
vt 0.625000 0.000000
vt 0.625000 0.250000
vt 0.375000 0.250000
vt 0.625000 0.500000
vt 0.375000 0.500000
vt 0.625000 0.750000
vt 0.375000 0.750000
vt 0.625000 1.000000
vt 0.375000 1.000000
vt 0.375000 1.000000
vt 0.375000 0.750000
vt 0.875000 0.500000
vt 0.875000 0.750000
vt 0.125000 0.500000
vt 0.375000 0.500000
vt 0.125000 0.750000
vt 0.375000 0.250000
vt 0.375000 0.000000
vn -1.0000 0.0000 0.0000
vn 0.0000 0.0000 -1.0000
vn 1.0000 0.0000 0.0000
vn 0.0000 0.0000 1.0000
vn 0.0000 -0.3895 0.9210
vn 0.0000 1.0000 0.0000
vn 0.0000 -1.0000 0.0000
vn 0.0000 0.3149 -0.9491
usemtl None
s 1
f 110/183/97 111/184/97 112/185/97 113/186/97
f 113/186/98 112/185/98 114/187/98 115/188/98
f 115/188/99 114/187/99 116/189/99 117/190/99
f 117/190/100 116/189/100 111/191/100 110/192/100
f 117/190/101 110/192/101 118/193/101 119/194/101
f 114/187/102 112/195/102 111/196/102 116/189/102
f 120/197/103 121/198/103 119/194/103 118/199/103
f 113/186/104 115/188/104 121/198/104 120/200/104
f 110/183/97 113/186/97 120/200/97 118/201/97
f 115/188/99 117/190/99 119/194/99 121/198/99
o Cylinder
v 0.000000 2.274409 6.517398
v 0.000000 2.225421 11.639098
v 0.099197 2.216247 11.632145
v 0.099197 2.262898 6.517398
v 0.194582 2.189078 11.611554
v 0.194582 2.228808 6.517398
v 0.282489 2.144958 11.578115
v 0.282489 2.173449 6.517398
v 0.359541 2.085584 11.533115
v 0.359541 2.098947 6.517398
v 0.422775 2.013235 11.478281
v 0.422775 2.008167 6.517398
v 0.469763 1.930694 11.415722
v 0.469763 1.904597 6.517398
v 0.498697 1.841130 11.347840
v 0.498697 1.792216 6.517398
v 0.508467 1.747988 11.277248
v 0.508467 1.675345 6.517398
v 0.498697 1.621668 11.179645
v 0.498697 1.621141 6.517398
v 0.469763 1.465455 11.372641
v 0.469763 1.549736 6.517398
v 0.422775 1.413009 11.440838
v 0.422775 1.483929 6.517398
v 0.359541 1.367041 11.500612
v 0.359541 1.426250 6.517398
v 0.282489 1.329315 11.549669
v 0.282489 1.378913 6.517398
v 0.194582 1.301283 11.586122
v 0.194582 1.343739 6.517398
v 0.099197 1.284021 11.608568
v 0.099197 1.322078 6.517398
v 0.000000 1.278192 11.616147
v 0.000000 1.314765 6.517398
v -0.099197 1.284021 11.608568
v -0.099197 1.322078 6.517398
v -0.194582 1.301283 11.586122
v -0.194582 1.343739 6.517398
v -0.282490 1.329315 11.549669
v -0.282490 1.378913 6.517398
v -0.359541 1.367041 11.500612
v -0.359541 1.426250 6.517398
v -0.422775 1.413010 11.440837
v -0.422775 1.483930 6.517398
v -0.469763 1.465455 11.372641
v -0.469763 1.549736 6.517398
v -0.498697 1.621668 11.179645
v -0.498697 1.621141 6.517398
v -0.508467 1.747988 11.277248
v -0.508467 1.675345 6.517398
v -0.498697 1.841130 11.347840
v -0.498697 1.792216 6.517398
v -0.469762 1.930694 11.415723
v -0.469762 1.904598 6.517398
v -0.422775 2.013236 11.478282
v -0.422775 2.008168 6.517398
v -0.359540 2.085585 11.533115
v -0.359540 2.098948 6.517398
v -0.282489 2.144959 11.578116
v -0.282489 2.173449 6.517398
v -0.194581 2.189078 11.611554
v -0.194581 2.228808 6.517398
v -0.099196 2.216247 11.632145
v -0.099196 2.262898 6.517398
vt 1.000000 0.500000
vt 1.000000 1.000000
vt 0.968750 1.000000
vt 0.968750 0.500000
vt 0.937500 1.000000
vt 0.937500 0.500000
vt 0.906250 1.000000
vt 0.906250 0.500000
vt 0.875000 1.000000
vt 0.875000 0.500000
vt 0.843750 1.000000
vt 0.843750 0.500000
vt 0.812500 1.000000
vt 0.812500 0.500000
vt 0.781250 1.000000
vt 0.781250 0.500000
vt 0.750000 1.000000
vt 0.750000 0.500000
vt 0.718750 1.000000
vt 0.718750 0.500000
vt 0.687500 1.000000
vt 0.687500 0.500000
vt 0.656250 1.000000
vt 0.656250 0.500000
vt 0.625000 1.000000
vt 0.625000 0.500000
vt 0.593750 1.000000
vt 0.593750 0.500000
vt 0.562500 1.000000
vt 0.562500 0.500000
vt 0.531250 1.000000
vt 0.531250 0.500000
vt 0.500000 1.000000
vt 0.500000 0.500000
vt 0.468750 1.000000
vt 0.468750 0.500000
vt 0.437500 1.000000
vt 0.437500 0.500000
vt 0.406250 1.000000
vt 0.406250 0.500000
vt 0.375000 1.000000
vt 0.375000 0.500000
vt 0.343750 1.000000
vt 0.343750 0.500000
vt 0.312500 1.000000
vt 0.312500 0.500000
vt 0.281250 1.000000
vt 0.281250 0.500000
vt 0.250000 1.000000
vt 0.250000 0.500000
vt 0.218750 1.000000
vt 0.218750 0.500000
vt 0.187500 1.000000
vt 0.187500 0.500000
vt 0.156250 1.000000
vt 0.156250 0.500000
vt 0.125000 1.000000
vt 0.125000 0.500000
vt 0.093750 1.000000
vt 0.093750 0.500000
vt 0.062500 1.000000
vt 0.062500 0.500000
vt 0.485388 0.203178
vt 0.014611 0.203179
vt 0.028269 0.158156
vt 0.050447 0.116663
vt 0.080294 0.080294
vt 0.116663 0.050447
vt 0.158156 0.028269
vt 0.203178 0.014612
vt 0.250000 0.010000
vt 0.296822 0.014612
vt 0.341844 0.028269
vt 0.383337 0.050447
vt 0.419706 0.080294
vt 0.449553 0.116663
vt 0.471731 0.158156
vt 0.031250 1.000000
vt 0.031250 0.500000
vt 0.000000 1.000000
vt 0.000000 0.500000
vt 0.750000 0.490000
vt 0.796822 0.485388
vt 0.841844 0.471731
vt 0.883337 0.449553
vt 0.919706 0.419706
vt 0.949553 0.383337
vt 0.971731 0.341844
vt 0.985388 0.296822
vt 0.990000 0.250000
vt 0.985388 0.203178
vt 0.971731 0.158156
vt 0.949553 0.116663
vt 0.919706 0.080294
vt 0.883337 0.050447
vt 0.841844 0.028269
vt 0.796822 0.014612
vt 0.750000 0.010000
vt 0.703178 0.014612
vt 0.658156 0.028269
vt 0.616663 0.050447
vt 0.580294 0.080294
vt 0.550447 0.116663
vt 0.528269 0.158156
vt 0.514611 0.203179
vt 0.510000 0.250000
vt 0.514612 0.296822
vt 0.528269 0.341844
vt 0.550447 0.383337
vt 0.580295 0.419706
vt 0.616663 0.449553
vt 0.658156 0.471731
vt 0.703179 0.485389
vt 0.296822 0.485388
vt 0.250000 0.490000
vt 0.203179 0.485389
vt 0.158156 0.471731
vt 0.116663 0.449553
vt 0.080295 0.419706
vt 0.050447 0.383337
vt 0.028269 0.341844
vt 0.014612 0.296822
vt 0.010000 0.250000
vt 0.490000 0.250000
vt 0.485388 0.296822
vt 0.471731 0.341844
vt 0.449553 0.383337
vt 0.419706 0.419706
vt 0.383337 0.449553
vt 0.341844 0.471731
vn 0.1040 0.9945 0.0093
vn 0.3065 0.9518 0.0081
vn 0.4933 0.8698 0.0058
vn 0.6563 0.7545 0.0031
vn 0.7904 0.6126 0.0005
vn 0.8925 0.4511 -0.0014
vn 0.9611 0.2761 -0.0021
vn 0.9957 0.0930 -0.0012
vn 0.9941 -0.1081 0.0008
vn 0.9687 -0.2481 -0.0022
vn 0.7801 -0.6256 -0.0099
vn 0.6310 -0.7758 -0.0102
vn 0.4809 -0.8767 -0.0095
vn 0.3367 -0.9416 -0.0086
vn 0.1990 -0.9800 -0.0078
vn 0.0658 -0.9978 -0.0073
vn -0.0658 -0.9978 -0.0073
vn -0.1990 -0.9800 -0.0078
vn -0.3367 -0.9416 -0.0086
vn -0.4809 -0.8767 -0.0095
vn -0.6310 -0.7757 -0.0102
vn -0.7800 -0.6256 -0.0099
vn -0.9687 -0.2481 -0.0022
vn -0.9941 -0.1081 0.0008
vn -0.9957 0.0930 -0.0012
vn -0.9611 0.2761 -0.0021
vn -0.8925 0.4511 -0.0014
vn -0.7904 0.6126 0.0005
vn -0.6563 0.7545 0.0031
vn -0.4933 0.8699 0.0058
vn -0.0000 0.7845 0.6202
vn -0.3065 0.9518 0.0081
vn -0.1040 0.9945 0.0093
vn 0.0000 0.0000 -1.0000
vn 0.0000 -0.6040 0.7970
vn 0.0000 -0.6078 0.7941
vn 0.0000 -0.6114 0.7913
usemtl None
s 1
f 122/202/105 123/203/105 124/204/105 125/205/105
f 125/205/106 124/204/106 126/206/106 127/207/106
f 127/207/107 126/206/107 128/208/107 129/209/107
f 129/209/108 128/208/108 130/210/108 131/211/108
f 131/211/109 130/210/109 132/212/109 133/213/109
f 133/213/110 132/212/110 134/214/110 135/215/110
f 135/215/111 134/214/111 136/216/111 137/217/111
f 137/217/112 136/216/112 138/218/112 139/219/112
f 139/219/113 138/218/113 140/220/113 141/221/113
f 141/221/114 140/220/114 142/222/114 143/223/114
f 143/223/115 142/222/115 144/224/115 145/225/115
f 145/225/116 144/224/116 146/226/116 147/227/116
f 147/227/117 146/226/117 148/228/117 149/229/117
f 149/229/118 148/228/118 150/230/118 151/231/118
f 151/231/119 150/230/119 152/232/119 153/233/119
f 153/233/120 152/232/120 154/234/120 155/235/120
f 155/235/121 154/234/121 156/236/121 157/237/121
f 157/237/122 156/236/122 158/238/122 159/239/122
f 159/239/123 158/238/123 160/240/123 161/241/123
f 161/241/124 160/240/124 162/242/124 163/243/124
f 163/243/125 162/242/125 164/244/125 165/245/125
f 165/245/126 164/244/126 166/246/126 167/247/126
f 167/247/127 166/246/127 168/248/127 169/249/127
f 169/249/128 168/248/128 170/250/128 171/251/128
f 171/251/129 170/250/129 172/252/129 173/253/129
f 173/253/130 172/252/130 174/254/130 175/255/130
f 175/255/131 174/254/131 176/256/131 177/257/131
f 177/257/132 176/256/132 178/258/132 179/259/132
f 179/259/133 178/258/133 180/260/133 181/261/133
f 181/261/134 180/260/134 182/262/134 183/263/134
f 140/264/135 168/265/135 166/266/135 164/267/135 162/268/135 160/269/135 158/270/135 156/271/135 154/272/135 152/273/135 150/274/135 148/275/135 146/276/135 144/277/135 142/278/135
f 183/263/136 182/262/136 184/279/136 185/280/136
f 185/280/137 184/279/137 123/281/137 122/282/137
f 122/283/138 125/284/138 127/285/138 129/286/138 131/287/138 133/288/138 135/289/138 137/290/138 139/291/138 141/292/138 143/293/138 145/294/138 147/295/138 149/296/138 151/297/138 153/298/138 155/299/138 157/300/138 159/301/138 161/302/138 163/303/138 165/304/138 167/305/138 169/306/138 171/307/138 173/308/138 175/309/138 177/310/138 179/311/138 181/312/138 183/313/138 185/314/138
f 124/315/139 123/316/139 184/317/139 182/318/139 180/319/139 178/320/139 176/321/139 174/322/139 172/323/139 170/324/140 138/325/140 136/326/139 134/327/139 132/328/139 130/329/139 128/330/139 126/331/139
f 138/325/140 170/324/140 168/265/141 140/264/141
